<svg id="visual" viewBox="0 0 960 540" width="960" height="540" xmlns="http://www.w3.org/2000/svg" xmlns:xlink="http://www.w3.org/1999/xlink" version="1.1"><path d="M396 0L391.8 12.8C387.7 25.7 379.3 51.3 367.3 77C355.3 102.7 339.7 128.3 343 154C346.3 179.7 368.7 205.3 384.5 231.2C400.3 257 409.7 283 403.5 308.8C397.3 334.7 375.7 360.3 381 386C386.3 411.7 418.7 437.3 435.3 463C452 488.7 453 514.3 453.5 527.2L454 540L0 540L0 527.2C0 514.3 0 488.7 0 463C0 437.3 0 411.7 0 386C0 360.3 0 334.7 0 308.8C0 283 0 257 0 231.2C0 205.3 0 179.7 0 154C0 128.3 0 102.7 0 77C0 51.3 0 25.7 0 12.8L0 0Z" fill="#658cff"></path><path d="M333 0L333.5 12.8C334 25.7 335 51.3 326.8 77C318.7 102.7 301.3 128.3 298.5 154C295.7 179.7 307.3 205.3 296.5 231.2C285.7 257 252.3 283 234.8 308.8C217.3 334.7 215.7 360.3 220.5 386C225.3 411.7 236.7 437.3 256.5 463C276.3 488.7 304.7 514.3 318.8 527.2L333 540L0 540L0 527.2C0 514.3 0 488.7 0 463C0 437.3 0 411.7 0 386C0 360.3 0 334.7 0 308.8C0 283 0 257 0 231.2C0 205.3 0 179.7 0 154C0 128.3 0 102.7 0 77C0 51.3 0 25.7 0 12.8L0 0Z" fill="#0055ff"></path><path d="M131 0L138.2 12.8C145.3 25.7 159.7 51.3 161.5 77C163.3 102.7 152.7 128.3 148.8 154C145 179.7 148 205.3 146.7 231.2C145.3 257 139.7 283 142.2 308.8C144.7 334.7 155.3 360.3 149.7 386C144 411.7 122 437.3 110.2 463C98.3 488.7 96.7 514.3 95.8 527.2L95 540L0 540L0 527.2C0 514.3 0 488.7 0 463C0 437.3 0 411.7 0 386C0 360.3 0 334.7 0 308.8C0 283 0 257 0 231.2C0 205.3 0 179.7 0 154C0 128.3 0 102.7 0 77C0 51.3 0 25.7 0 12.8L0 0Z" fill="#0040bc"></path></svg>