<svg id="visual" viewBox="0 0 1366 768" width="1366" height="768" xmlns="http://www.w3.org/2000/svg" xmlns:xlink="http://www.w3.org/1999/xlink" version="1.1"><path d="M563 0L557.2 18.3C551.3 36.7 539.7 73.3 522.7 109.8C505.7 146.3 483.3 182.7 488 219.2C492.7 255.7 524.3 292.3 546.8 329C569.3 365.7 582.7 402.3 573.8 439C565 475.7 534 512.3 541.5 548.8C549 585.3 595 621.7 618.8 658.2C642.7 694.7 644.3 731.3 645.2 749.7L646 768L0 768L0 749.7C0 731.3 0 694.7 0 658.2C0 621.7 0 585.3 0 548.8C0 512.3 0 475.7 0 439C0 402.3 0 365.7 0 329C0 292.3 0 255.7 0 219.2C0 182.7 0 146.3 0 109.8C0 73.3 0 36.7 0 18.3L0 0Z" fill="#658cff"></path><path d="M474 0L474.5 18.3C475 36.7 476 73.3 464.2 109.8C452.3 146.3 427.7 182.7 423.8 219.2C420 255.7 437 292.3 421.7 329C406.3 365.7 358.7 402.3 333.7 439C308.7 475.7 306.3 512.3 313.2 548.8C320 585.3 336 621.7 364.3 658.2C392.7 694.7 433.3 731.3 453.7 749.7L474 768L0 768L0 749.7C0 731.3 0 694.7 0 658.2C0 621.7 0 585.3 0 548.8C0 512.3 0 475.7 0 439C0 402.3 0 365.7 0 329C0 292.3 0 255.7 0 219.2C0 182.7 0 146.3 0 109.8C0 73.3 0 36.7 0 18.3L0 0Z" fill="#0055ff"></path><path d="M185 0L195.5 18.3C206 36.7 227 73.3 229.8 109.8C232.7 146.3 217.3 182.7 211.8 219.2C206.3 255.7 210.7 292.3 208.8 329C207 365.7 199 402.3 202.3 439C205.7 475.7 220.3 512.3 212.2 548.8C204 585.3 173 621.7 156.2 658.2C139.3 694.7 136.7 731.3 135.3 749.7L134 768L0 768L0 749.7C0 731.3 0 694.7 0 658.2C0 621.7 0 585.3 0 548.8C0 512.3 0 475.7 0 439C0 402.3 0 365.7 0 329C0 292.3 0 255.7 0 219.2C0 182.7 0 146.3 0 109.8C0 73.3 0 36.7 0 18.3L0 0Z" fill="#0040bc"></path></svg>